# 3ds Max Wavefront OBJ Exporter v0.97b - (c)2007 guruware
# File Created: 28.10.2015 20:32:18

mtllib maskoftruth.mtl

#
# object node_00A6AD9A
#

v  0.0000 10.2205 3.3071
v  0.0000 2.5591 5.8780
v  5.4646 5.0906 3.5984
v  -5.4646 5.0906 3.5984
v  4.6417 8.9370 1.8976
v  -4.6417 8.9370 1.8976
v  2.2441 13.6220 -2.5591
v  -2.2441 13.6220 -2.5591
v  0.0000 14.5039 -2.2480
v  5.0551 -1.3425 4.0276
v  -5.0551 -1.3425 4.0276
v  0.0000 -4.6850 5.4016
v  5.6378 10.8819 -3.7480
v  8.2717 9.0984 -0.6811
v  -5.6378 10.8819 -3.7480
v  -8.2717 9.0984 -0.6811
v  0.6890 -5.5039 5.0000
v  9.6181 3.7795 0.2008
v  4.6496 -5.2717 3.1457
v  5.9724 -4.3780 2.1142
v  -9.6181 3.7795 0.2008
v  -0.6890 -5.5039 5.0000
v  -5.9724 -4.3780 2.1142
v  -4.6496 -5.2717 3.1457
v  10.3346 11.3307 -4.4961
v  -10.3346 11.3307 -4.4961
v  2.6496 -6.7244 3.8661
v  0.0000 -6.4016 4.9134
v  9.8898 -2.2598 -3.1969
v  6.9016 -7.2598 -1.6929
v  4.9685 -5.9961 2.1575
v  -2.6496 -6.7244 3.8661
v  -9.8898 -2.2598 -3.1969
v  -6.9016 -7.2598 -1.6929
v  -4.9685 -5.9961 2.1575
v  11.8898 9.7205 -4.9685
v  -11.8898 9.7205 -4.9685
v  0.0000 -7.7205 4.3071
v  12.0748 5.2047 -4.8346
v  2.8937 -8.1850 2.4173
v  -12.0748 5.2047 -4.8346
v  -2.8937 -8.1850 2.4173
v  -3.1654 -10.8504 -0.8346
v  3.1654 -10.8504 -0.8346
v  0.0000 -9.5276 3.0315
v  0.0000 -12.4606 -0.5748
# 46 vertices

vn 0.2408 0.3088 0.9202
vn -0.2408 0.3088 0.9202
vn 0.3702 0.4408 0.8177
vn -0.3702 0.4408 0.8177
vn 0.3751 0.7324 0.5682
vn -0.3751 0.7324 0.5682
vn 0.3681 0.7363 0.5678
vn -0.3681 0.7363 0.5678
vn 0.3695 0.0384 0.9284
vn -0.3695 0.0384 0.9284
vn 0.3001 -0.0626 0.9518
vn -0.3001 -0.0626 0.9518
vn 0.6598 0.6670 0.3462
vn 0.5080 0.4369 0.7424
vn 0.2090 0.9127 0.3513
vn -0.6598 0.6670 0.3462
vn -0.5080 0.4369 0.7424
vn -0.2090 0.9127 0.3513
vn 0.3533 -0.1551 0.9225
vn 0.6352 0.0111 0.7723
vn 0.4231 -0.2398 0.8738
vn 0.7434 -0.1812 0.6439
vn 0.6893 -0.2257 0.6885
vn 0.6592 0.2824 0.6969
vn -0.6352 0.0111 0.7723
vn -0.3533 -0.1551 0.9225
vn -0.7434 -0.1812 0.6439
vn -0.4231 -0.2398 0.8738
vn -0.6893 -0.2257 0.6885
vn -0.6592 0.2824 0.6969
vn -0.0022 0.8636 0.5041
vn 0.0022 0.8636 0.5041
vn 0.4265 -0.1444 0.8929
vn 0.3128 -0.3262 0.8920
vn 0.8242 -0.2491 0.5086
vn 0.8154 -0.3482 0.4625
vn 0.7349 -0.4422 0.5141
vn -0.4265 -0.1444 0.8929
vn -0.3128 -0.3262 0.8920
vn -0.8242 -0.2491 0.5086
vn -0.8154 -0.3482 0.4625
vn -0.7349 -0.4422 0.5141
vn 0.6502 0.4479 0.6137
vn 0.7113 0.2865 0.6418
vn -0.6502 0.4479 0.6137
vn -0.7113 0.2865 0.6418
vn 0.2946 -0.3992 0.8683
vn -0.2946 -0.3992 0.8683
vn 0.9033 -0.1788 0.3901
vn 0.8920 0.0499 0.4493
vn 0.6532 -0.5585 0.5113
vn -0.9033 -0.1788 0.3901
vn -0.8920 0.0499 0.4493
vn -0.6532 -0.5585 0.5113
vn -0.6535 -0.5577 0.5117
vn 0.6535 -0.5577 0.5117
vn 0.4393 -0.6765 0.5911
vn -0.4393 -0.6765 0.5911
vn 0.4077 -0.7084 0.5762
vn -0.4077 -0.7084 0.5762
# 60 vertex normals

vt 0.0200 0.7700 0.0000
vt 0.0200 0.5300 0.0000
vt 0.1700 0.6100 0.0000
vt 0.1600 0.7500 0.0000
vt 0.1100 0.9700 0.0000
vt 0.0200 0.9800 0.0000
vt 0.1700 0.4200 0.0000
vt 0.0200 0.3100 0.0000
vt 0.2500 0.9100 0.0000
vt 0.3000 0.7700 0.0000
vt 0.0500 0.2800 0.0000
vt 0.3400 0.5600 0.0000
vt 0.1600 0.3000 0.0000
vt 0.2200 0.3300 0.0000
vt 0.4200 0.9100 0.0000
vt 0.0900 0.2500 0.0000
vt 0.0200 0.2500 0.0000
vt 0.3900 0.3800 0.0000
vt 0.2500 0.2000 0.0000
vt 0.1700 0.2700 0.0000
vt 0.4800 0.8300 0.0000
vt 0.0200 0.2200 0.0000
vt 0.4800 0.6200 0.0000
vt 0.0900 0.1900 0.0000
vt 0.1100 0.0800 0.0000
vt 0.0200 0.1600 0.0000
vt 0.0200 0.0200 0.0000
# 27 texture coords

g node_00A6AD9A
usemtl material_024B689F
s off
f 1/1/1 2/2/1 3/3/1 
f 1/1/2 4/3/2 2/2/2 
f 1/1/3 3/3/3 5/4/3 
f 1/1/4 6/4/4 4/3/4 
f 1/1/5 5/4/5 7/5/5 
f 1/1/6 8/5/6 6/4/6 
f 1/1/7 7/5/7 9/6/7 
f 1/1/8 9/6/8 8/5/8 
f 2/2/9 10/7/9 3/3/9 
f 2/2/10 4/3/10 11/7/10 
f 2/2/11 12/8/11 10/7/11 
f 2/2/12 11/7/12 12/8/12 
f 5/4/13 13/9/13 7/5/13 
f 5/4/14 3/3/14 14/10/14 
f 5/4/15 14/10/15 13/9/15 
f 6/4/16 8/5/16 15/9/16 
f 6/4/17 16/10/17 4/3/17 
f 6/4/18 15/9/18 16/10/18 
f 10/7/19 12/8/19 17/11/19 
f 10/7/20 18/12/20 3/3/20 
f 10/7/21 17/11/21 19/13/21 
f 10/7/22 20/14/22 18/12/22 
f 10/7/23 19/13/23 20/14/23 
f 3/3/24 18/12/24 14/10/24 
f 11/7/25 4/3/25 21/12/25 
f 11/7/26 22/11/26 12/8/26 
f 11/7/27 21/12/27 23/14/27 
f 11/7/28 24/13/28 22/11/28 
f 11/7/29 23/14/29 24/13/29 
f 4/3/30 16/10/30 21/12/30 
f 13/9/31 14/10/31 25/15/31 
f 15/9/32 26/15/32 16/10/32 
f 17/11/33 27/16/33 19/13/33 
f 17/11/34 28/17/34 27/16/34 
f 20/14/35 29/18/35 18/12/35 
f 20/14/36 30/19/36 29/18/36 
f 20/14/37 31/20/37 30/19/37 
f 22/11/38 24/13/38 32/16/38 
f 22/11/39 32/16/39 28/17/39 
f 23/14/40 21/12/40 33/18/40 
f 23/14/41 33/18/41 34/19/41 
f 23/14/42 34/19/42 35/20/42 
f 14/10/43 36/21/43 25/15/43 
f 14/10/44 18/12/44 36/21/44 
f 26/15/45 37/21/45 16/10/45 
f 16/10/46 37/21/46 21/12/46 
f 27/16/47 28/17/47 38/22/47 
f 38/22/48 28/17/48 32/16/48 
f 29/18/49 39/23/49 18/12/49 
f 18/12/50 39/23/50 36/21/50 
f 31/20/51 40/24/51 30/19/51 
f 33/18/52 21/12/52 41/23/52 
f 41/23/53 21/12/53 37/21/53 
f 34/19/54 42/24/54 35/20/54 
f 34/19/55 43/25/55 42/24/55 
f 40/24/56 44/25/56 30/19/56 
f 40/24/57 45/26/57 44/25/57 
f 42/24/58 43/25/58 45/26/58 
f 44/25/59 45/26/59 46/27/59 
f 46/27/60 45/26/60 43/25/60 
# 0 polygons - 60 triangles

#
# object node_01DC1A6B
#

v  8.9449 5.6260 -1.8268
v  11.1693 9.1614 -4.9685
v  11.2402 5.4134 -4.8346
v  9.9843 10.5039 -4.4961
v  9.1811 -1.8110 -3.1969
v  5.3819 10.1024 -3.7480
v  5.9724 -4.3780 2.1142
v  4.4961 8.3071 0.1693
v  5.0551 -1.0984 2.9764
v  6.1457 -6.9724 -1.6929
v  2.2441 12.7520 -2.5591
v  4.6496 -5.2717 3.1457
v  0.0000 2.5591 4.1142
v  0.6890 -5.5039 5.0000
v  0.0000 -4.6850 5.4016
v  4.9685 -5.9961 2.1575
v  2.8937 -8.1850 2.4173
v  2.7953 -10.3780 -0.8346
v  0.0000 9.4370 1.0906
v  0.0000 13.5394 -2.2480
v  2.6496 -6.7244 3.8661
v  -5.0551 -1.0984 2.9764
v  -0.6890 -5.5039 5.0000
v  0.0000 -9.5276 3.0315
v  0.0000 -11.7244 -0.5748
v  -2.2441 12.7520 -2.5591
v  0.0000 -6.4016 4.9134
v  0.0000 -7.7205 4.3071
v  -4.4961 8.3071 0.1693
v  -2.6496 -6.7244 3.8661
v  -4.6496 -5.2717 3.1457
v  -2.7953 -10.3780 -0.8346
v  -5.3819 10.1024 -3.7480
v  -8.9449 5.6260 -1.8268
v  -5.9724 -4.3780 2.1142
v  -2.8937 -8.1850 2.4173
v  -6.1457 -6.9724 -1.6929
v  -9.9843 10.5039 -4.4961
v  -9.1811 -1.8110 -3.1969
v  -4.9685 -5.9961 2.1575
v  -11.1693 9.1614 -4.9685
v  -11.2402 5.4134 -4.8346
v  2.2441 13.6220 -2.5591
v  0.0000 14.5039 -2.2480
v  -2.2441 13.6220 -2.5591
v  5.6378 10.8819 -3.7480
v  -5.6378 10.8819 -3.7480
v  10.3346 11.3307 -4.4961
v  11.8898 9.7205 -4.9685
v  -10.3346 11.3307 -4.4961
v  12.0748 5.2047 -4.8346
v  -11.8898 9.7205 -4.9685
v  -12.0748 5.2047 -4.8346
v  9.8898 -2.2598 -3.1969
v  6.9016 -7.2598 -1.6929
v  -9.8898 -2.2598 -3.1969
v  -6.9016 -7.2598 -1.6929
v  3.1654 -10.8504 -0.8346
v  -3.1654 -10.8504 -0.8346
v  0.0000 -12.4606 -0.5748
# 60 vertices

vn -0.7957 -0.0366 -0.6046
vn -0.6096 -0.2766 -0.7429
vn -0.7890 0.0870 -0.6082
vn -0.1031 -0.4605 -0.8817
vn -0.8675 0.0634 -0.4935
vn -0.6001 -0.6671 -0.4414
vn -0.7509 -0.0367 -0.6594
vn -0.5255 -0.2718 -0.8062
vn -0.8548 0.4100 -0.3183
vn -0.6722 -0.6037 -0.4287
vn -0.6269 0.0293 -0.7785
vn -0.4013 -0.2838 -0.8709
vn -0.4242 0.0045 -0.9055
vn -0.3288 -0.1652 -0.9298
vn -0.4596 0.0482 -0.8868
vn -0.7952 0.4836 -0.3657
vn -0.6960 0.6159 -0.3690
vn -0.7052 0.5976 -0.3816
vn -0.3029 -0.6053 -0.7361
vn -0.3125 -0.5996 -0.7368
vn -0.2774 -0.3866 -0.8795
vn -0.4265 0.1444 -0.8929
vn 0.3288 -0.1652 -0.9298
vn 0.4596 0.0482 -0.8868
vn -0.4503 0.7465 -0.4898
vn -0.4177 0.7759 -0.4727
vn 0.3125 -0.5996 -0.7368
vn -0.3128 0.3262 -0.8920
vn -0.2946 0.3992 -0.8683
vn 0.4013 -0.2838 -0.8709
vn 0.2774 -0.3866 -0.8795
vn 0.3029 -0.6053 -0.7361
vn 0.3128 0.3262 -0.8920
vn 0.4242 0.0045 -0.9055
vn 0.4265 0.1444 -0.8929
vn 0.2946 0.3992 -0.8683
vn 0.4177 0.7759 -0.4727
vn 0.6722 -0.6037 -0.4287
vn 0.5255 -0.2718 -0.8062
vn 0.6001 -0.6671 -0.4414
vn 0.6269 0.0293 -0.7785
vn 0.7509 -0.0367 -0.6594
vn 0.4503 0.7465 -0.4898
vn 0.7052 0.5976 -0.3816
vn 0.1031 -0.4605 -0.8817
vn 0.8548 0.4100 -0.3183
vn 0.8675 0.0634 -0.4935
vn 0.7952 0.4836 -0.3657
vn 0.6960 0.6159 -0.3690
vn 0.6096 -0.2766 -0.7429
vn 0.7890 0.0870 -0.6082
vn 0.7957 -0.0366 -0.6046
vn -0.1373 0.0000 -0.9905
vn 0.1373 0.0000 -0.9905
vn -0.3306 0.0000 -0.9438
vn -0.2832 0.0930 -0.9545
vn 0.3306 0.0000 -0.9438
vn 0.2832 0.0930 -0.9545
vn -0.1648 0.0541 -0.9848
vn -0.1634 0.0692 -0.9841
vn 0.1648 0.0541 -0.9848
vn -0.2585 0.1096 -0.9598
vn -0.1273 0.1641 -0.9782
vn 0.1634 0.0692 -0.9841
vn 0.2585 0.1096 -0.9598
vn 0.0223 -0.0287 -0.9993
vn 0.1273 0.1641 -0.9782
vn -0.0223 -0.0287 -0.9993
vn 0.0090 -0.0359 -0.9993
vn -0.0090 -0.0359 -0.9993
vn -0.0517 -0.2068 -0.9770
vn -0.1145 -0.1808 -0.9768
vn 0.0517 -0.2068 -0.9770
vn -0.1338 -0.2113 -0.9682
vn 0.1145 -0.1808 -0.9768
vn 0.1338 -0.2113 -0.9682
vn 0.0877 -0.2308 -0.9690
vn -0.0877 -0.2308 -0.9690
vn -0.0641 -0.1685 -0.9836
vn 0.0641 -0.1685 -0.9836
vn 0.1403 -0.1099 -0.9840
vn -0.1403 -0.1099 -0.9840
vn -0.0672 -0.0527 -0.9963
vn -0.0818 0.0000 -0.9966
vn 0.0672 -0.0527 -0.9963
vn 0.0818 0.0000 -0.9966
# 86 vertex normals

vt 0.8300 0.6400 0.0000
vt 0.9800 0.8300 0.0000
vt 0.9800 0.6200 0.0000
vt 0.9200 0.9100 0.0000
vt 0.8900 0.3800 0.0000
vt 0.7500 0.9100 0.0000
vt 0.7200 0.3300 0.0000
vt 0.6600 0.7500 0.0000
vt 0.6700 0.4200 0.0000
vt 0.7500 0.2000 0.0000
vt 0.6100 0.9700 0.0000
vt 0.6600 0.3000 0.0000
vt 0.5200 0.5300 0.0000
vt 0.5500 0.2800 0.0000
vt 0.5200 0.3100 0.0000
vt 0.6700 0.2700 0.0000
vt 0.5900 0.1900 0.0000
vt 0.6100 0.0800 0.0000
vt 0.5200 0.7700 0.0000
vt 0.5200 0.9800 0.0000
vt 0.5900 0.2500 0.0000
vt 0.5200 0.1600 0.0000
vt 0.5200 0.0200 0.0000
vt 0.5200 0.2500 0.0000
vt 0.5200 0.2200 0.0000
vt 0.0200 0.9800 0.0000
vt 0.1100 0.9700 0.0000
vt 0.2500 0.9100 0.0000
vt 0.4200 0.9100 0.0000
vt 0.4800 0.8300 0.0000
vt 0.4800 0.6200 0.0000
vt 0.3900 0.3800 0.0000
vt 0.2500 0.2000 0.0000
vt 0.1100 0.0800 0.0000
vt 0.0200 0.0200 0.0000
# 35 texture coords

g node_01DC1A6B
usemtl material_024B689F
s off
f 47/28/61 48/29/61 49/30/61 
f 47/28/62 50/31/62 48/29/62 
f 47/28/63 49/30/63 51/32/63 
f 47/28/64 52/33/64 50/31/64 
f 47/28/65 51/32/65 53/34/65 
f 47/28/66 54/35/66 52/33/66 
f 47/28/67 53/34/67 55/36/67 
f 47/28/68 55/36/68 54/35/68 
f 51/32/69 56/37/69 53/34/69 
f 52/33/70 54/35/70 57/38/70 
f 55/36/71 53/34/71 58/39/71 
f 55/36/72 59/40/72 54/35/72 
f 55/36/73 58/39/73 60/41/73 
f 55/36/74 61/42/74 59/40/74 
f 55/36/75 60/41/75 61/42/75 
f 56/37/76 62/43/76 53/34/76 
f 56/37/77 63/44/77 62/43/77 
f 56/37/78 64/45/78 63/44/78 
f 57/38/79 54/35/79 65/46/79 
f 57/38/80 65/46/80 66/47/80 
f 54/35/81 59/40/81 65/46/81 
f 58/39/82 67/48/82 60/41/82 
f 61/42/83 68/36/83 59/40/83 
f 61/42/84 69/41/84 68/36/84 
f 64/45/85 70/49/85 63/44/85 
f 64/45/86 71/50/86 70/49/86 
f 66/47/87 65/46/87 72/38/87 
f 67/48/88 73/51/88 60/41/88 
f 67/48/89 74/52/89 73/51/89 
f 59/40/90 68/36/90 75/35/90 
f 59/40/91 75/35/91 65/46/91 
f 65/46/92 75/35/92 72/38/92 
f 69/41/93 73/51/93 76/48/93 
f 69/41/94 77/39/94 68/36/94 
f 69/41/95 76/48/95 77/39/95 
f 76/48/96 73/51/96 74/52/96 
f 71/50/97 78/45/97 70/49/97 
f 75/35/98 79/33/98 72/38/98 
f 75/35/99 68/36/99 80/28/99 
f 75/35/100 80/28/100 79/33/100 
f 77/39/101 81/34/101 68/36/101 
f 68/36/102 81/34/102 80/28/102 
f 78/45/103 82/44/103 70/49/103 
f 78/45/104 83/37/104 82/44/104 
f 79/33/105 80/28/105 84/31/105 
f 81/34/106 83/37/106 85/32/106 
f 81/34/107 85/32/107 80/28/107 
f 81/34/108 86/43/108 83/37/108 
f 83/37/109 86/43/109 82/44/109 
f 84/31/110 80/28/110 87/29/110 
f 85/32/111 88/30/111 80/28/111 
f 80/28/112 88/30/112 87/29/112 
f 66/53/113 89/54/113 57/54/113 
f 66/53/113 90/53/113 89/54/113 
f 66/53/114 91/54/114 90/53/114 
f 66/53/114 72/54/114 91/54/114 
f 57/54/115 89/54/115 92/55/115 
f 57/54/116 92/55/116 52/55/116 
f 72/54/117 93/55/117 91/54/117 
f 72/54/118 79/55/118 93/55/118 
f 92/55/119 50/56/119 52/55/119 
f 92/55/120 94/56/120 50/56/120 
f 79/55/121 84/56/121 93/55/121 
f 94/56/122 48/57/122 50/56/122 
f 94/56/123 95/57/123 48/57/123 
f 84/56/124 96/56/124 93/55/124 
f 84/56/125 87/57/125 96/56/125 
f 95/57/126 97/58/126 48/57/126 
f 87/57/127 98/57/127 96/56/127 
f 87/57/128 99/58/128 98/57/128 
f 87/57/129 88/58/129 99/58/129 
f 97/58/130 49/58/130 48/57/130 
f 97/58/131 51/59/131 49/58/131 
f 97/58/132 100/59/132 51/59/132 
f 88/58/133 85/59/133 99/58/133 
f 100/59/134 101/60/134 51/59/134 
f 85/59/135 102/59/135 99/58/135 
f 85/59/136 103/60/136 102/59/136 
f 85/59/137 83/60/137 103/60/137 
f 101/60/138 56/60/138 51/59/138 
f 101/60/139 104/61/139 56/60/139 
f 83/60/140 105/61/140 103/60/140 
f 83/60/141 78/61/141 105/61/141 
f 104/61/142 64/61/142 56/60/142 
f 104/61/143 71/62/143 64/61/143 
f 104/61/144 106/62/144 71/62/144 
f 71/62/145 105/61/145 78/61/145 
f 71/62/146 106/62/146 105/61/146 
# 0 polygons - 88 triangles

